{
  "accessors": [
    {
      "bufferView": 2,
      "componentType": 5126,
      "count": 1574,
      "max": [
        1,
        0.2549470067024231,
        0.11675599962472916
      ],
      "min": [
        -0.089344501495361328,
        -0.065738201141357422,
        -0.11675599962472916
      ],
      "type": "VEC3"
    },
    {
      "bufferView": 2,
      "byteOffset": 18888,
      "componentType": 5126,
      "count": 1574,
      "max": [
        1,
        1,
        1
      ],
      "min": [
        -1,
        -1,
        -1
      ],
      "type": "VEC3"
    },
    {
      "bufferView": 3,
      "componentType": 5126,
      "count": 1574,
      "max": [
        1,
        0.99968957901000977,
        1,
        1
      ],
      "min": [
        -1,
        -0.99996381998062134,
        -1,
        -1
      ],
      "type": "VEC4"
    },
    {
      "bufferView": 1,
      "componentType": 5126,
      "count": 1574,
      "max": [
        0.99573600292205811,
        0.99569302797317505
      ],
      "min": [
        0.0010300000431016088,
        0.001032999949529767
      ],
      "type": "VEC2"
    },
    {
      "bufferView": 0,
      "componentType": 5125,
      "count": 5604,
      "max": [
        1573
      ],
      "min": [
        0
      ],
      "type": "SCALAR"
    },
    {
      "bufferView": 2,
      "byteOffset": 37776,
      "componentType": 5126,
      "count": 20,
      "max": [
        -0.9769899845123291,
        0.1016400009393692,
        0.054372899234294891
      ],
      "min": [
        -1,
        -0.25021401047706604,
        -0.054373301565647125
      ],
      "type": "VEC3"
    },
    {
      "bufferView": 2,
      "byteOffset": 38016,
      "componentType": 5126,
      "count": 20,
      "max": [
        -0.95979589223861694,
        0.15990523993968964,
        -0
      ],
      "min": [
        -0.99981945753097534,
        -0.28069880604743958,
        -0
      ],
      "type": "VEC3"
    },
    {
      "bufferView": 3,
      "byteOffset": 25184,
      "componentType": 5126,
      "count": 20,
      "max": [
        9.3889320851303637e-05,
        3.6202603951096535e-05,
        1,
        1
      ],
      "min": [
        -4.0496870497008786e-06,
        -0.00032103658304549754,
        1,
        1
      ],
      "type": "VEC4"
    },
    {
      "bufferView": 1,
      "byteOffset": 12592,
      "componentType": 5126,
      "count": 20,
      "max": [
        0.52294498682022095,
        0.79280799627304077
      ],
      "min": [
        0.43078500032424927,
        0.49070298671722412
      ],
      "type": "VEC2"
    },
    {
      "bufferView": 0,
      "byteOffset": 22416,
      "componentType": 5125,
      "count": 54,
      "max": [
        19
      ],
      "min": [
        0
      ],
      "type": "SCALAR"
    },
    {
      "bufferView": 2,
      "byteOffset": 38256,
      "componentType": 5126,
      "count": 274,
      "max": [
        0.07643590122461319,
        0.22406700253486633,
        0.061577700078487396
      ],
      "min": [
        -1,
        -0.2549470067024231,
        -0.061578698456287384
      ],
      "type": "VEC3"
    },
    {
      "bufferView": 2,
      "byteOffset": 41544,
      "componentType": 5126,
      "count": 274,
      "max": [
        0.99934452772140503,
        0.99987679719924927,
        0.99996113777160645
      ],
      "min": [
        -0.70081228017807007,
        -0.99987202882766724,
        -0.99996113777160645
      ],
      "type": "VEC3"
    },
    {
      "bufferView": 3,
      "byteOffset": 25504,
      "componentType": 5126,
      "count": 274,
      "max": [
        0.99988645315170288,
        0.7687947154045105,
        1,
        1
      ],
      "min": [
        0,
        -0.98916482925415039,
        -1,
        -1
      ],
      "type": "VEC4"
    },
    {
      "bufferView": 1,
      "byteOffset": 12752,
      "componentType": 5126,
      "count": 274,
      "max": [
        0.96032100915908813,
        0.80633699893951416
      ],
      "min": [
        0.001032999949529767,
        0.001032999949529767
      ],
      "type": "VEC2"
    },
    {
      "bufferView": 0,
      "byteOffset": 22632,
      "componentType": 5125,
      "count": 1500,
      "max": [
        273
      ],
      "min": [
        0
      ],
      "type": "SCALAR"
    }
  ],
  "asset": {
    "extras": {
      "author": "Artem Goyko (https://sketchfab.com/Artem.Goyko)",
      "license": "CC-BY-4.0 (http://creativecommons.org/licenses/by/4.0/)",
      "source": "https://sketchfab.com/3d-models/shotgun-f608de1a0c594297908d6a300832ee73",
      "title": "Shotgun"
    },
    "generator": "Sketchfab-4.47.0",
    "version": "2.0"
  },
  "bufferViews": [
    {
      "buffer": 0,
      "byteLength": 28632,
      "byteOffset": 0,
      "name": "floatBufferViews",
      "target": 34963
    },
    {
      "buffer": 0,
      "byteLength": 14944,
      "byteOffset": 28632,
      "byteStride": 8,
      "name": "floatBufferViews",
      "target": 34962
    },
    {
      "buffer": 0,
      "byteLength": 44832,
      "byteOffset": 43576,
      "byteStride": 12,
      "name": "floatBufferViews",
      "target": 34962
    },
    {
      "buffer": 0,
      "byteLength": 29888,
      "byteOffset": 88408,
      "byteStride": 16,
      "name": "floatBufferViews",
      "target": 34962
    }
  ],
  "buffers": [
    {
      "byteLength": 118296,
      "uri": "scene.bin"
    }
  ],
  "images": [
    {
      "uri": "textures/None_001_metallicRoughness.png"
    },
    {
      "uri": "textures/None_001_baseColor.png"
    },
    {
      "uri": "textures/None_001_normal.png"
    }
  ],
  "materials": [
    {
      "doubleSided": true,
      "emissiveFactor": [
        0,
        0,
        0
      ],
      "name": "None_001",
      "normalTexture": {
        "index": 2,
        "scale": 1,
        "texCoord": 0
      },
      "occlusionTexture": {
        "index": 0,
        "strength": 1,
        "texCoord": 0
      },
      "pbrMetallicRoughness": {
        "baseColorFactor": [
          1,
          1,
          1,
          1
        ],
        "baseColorTexture": {
          "index": 1,
          "texCoord": 0
        },
        "metallicFactor": 1,
        "metallicRoughnessTexture": {
          "index": 0,
          "texCoord": 0
        },
        "roughnessFactor": 1
      }
    }
  ],
  "meshes": [
    {
      "name": "defaultMaterial",
      "primitives": [
        {
          "attributes": {
            "NORMAL": 1,
            "POSITION": 0,
            "TANGENT": 2,
            "TEXCOORD_0": 3
          },
          "indices": 4,
          "material": 0,
          "mode": 4
        }
      ]
    },
    {
      "name": "defaultMaterial",
      "primitives": [
        {
          "attributes": {
            "NORMAL": 6,
            "POSITION": 5,
            "TANGENT": 7,
            "TEXCOORD_0": 8
          },
          "indices": 9,
          "material": 0,
          "mode": 4
        }
      ]
    },
    {
      "name": "defaultMaterial",
      "primitives": [
        {
          "attributes": {
            "NORMAL": 11,
            "POSITION": 10,
            "TANGENT": 12,
            "TEXCOORD_0": 13
          },
          "indices": 14,
          "material": 0,
          "mode": 4
        }
      ]
    }
  ],
  "nodes": [
    {
      "children": [
        1
      ],
      "name": "RootNode (gltf orientation matrix)",
      "rotation": [
        -0.70710678118654746,
        -0,
        -0,
        0.70710678118654757
      ]
    },
    {
      "children": [
        2
      ],
      "name": "RootNode (model correction matrix)"
    },
    {
      "children": [
        3,
        5,
        7
      ],
      "matrix": [
        1,
        0,
        0,
        0,
        0,
        -4.3711390063094768e-08,
        0.999999999999999,
        0,
        0,
        -0.999999999999999,
        -4.3711390063094768e-08,
        0,
        0,
        0,
        0,
        1
      ],
      "name": "Collada visual scene group"
    },
    {
      "children": [
        4
      ],
      "name": "Shotgun_concept_01"
    },
    {
      "mesh": 0,
      "name": "defaultMaterial"
    },
    {
      "children": [
        6
      ],
      "name": "Shotgun_concept_01.002"
    },
    {
      "mesh": 1,
      "name": "defaultMaterial"
    },
    {
      "children": [
        8
      ],
      "name": "Plane"
    },
    {
      "mesh": 2,
      "name": "defaultMaterial"
    }
  ],
  "samplers": [
    {
      "magFilter": 9729,
      "minFilter": 9987,
      "wrapS": 10497,
      "wrapT": 10497
    }
  ],
  "scene": 0,
  "scenes": [
    {
      "name": "OSG_Scene",
      "nodes": [
        0
      ]
    }
  ],
  "textures": [
    {
      "sampler": 0,
      "source": 0
    },
    {
      "sampler": 0,
      "source": 1
    },
    {
      "sampler": 0,
      "source": 2
    }
  ]
}

